PathFileType	4	(X/Y/Z)	D:\TRACE\v60_Jaco2_6-2-23\BothDRS_Motion2_6-platform.trc
DataRate	CameraRate	NumFrames	NumMarkers	Units	OrigDataRate	OrigDataStartFrame	OrigNumFrames
100.00	100.00	      72	5	mm	100.00	1876	      7500
Frame#	Time	Left_Front			Right_Front			Left_Aft			Right_Aft			Post			
		X1	Y1	Z1	X2	Y2	Z2	X3	Y3	Z3	X4	Y4	Z4	X5	Y5	Z5	

1876	18.750	-750.65100	53.03710	-627.40308	819.32709	53.98026	-632.54248	-658.54651	-23.03151	505.37180	783.14777	-24.97476	514.11652	35.87790	1370.02454	-863.44403	
1877	18.760	-750.54492	53.99586	-626.99188	819.30005	54.73647	-632.53680	-658.40894	-23.83158	505.55206	783.39447	-25.79862	514.29706	36.07888	1371.09949	-860.90082	
1878	18.770	-750.33087	54.80234	-626.44501	819.50110	56.07783	-631.88727	-658.43115	-24.49908	505.87842	783.41888	-26.47943	514.49573	35.95559	1372.68164	-858.46118	
1879	18.780	-749.90601	55.89078	-626.26160	819.77216	57.06696	-631.82312	-658.18268	-25.39750	506.04489	783.43884	-27.35095	514.53711	36.19659	1374.19922	-856.34497	
1880	18.790	-750.03796	57.10989	-626.05023	819.64789	57.97428	-631.39081	-658.13251	-25.93043	506.07986	783.49310	-28.32529	514.58636	36.71446	1375.35168	-854.17548	
1881	18.800	-750.09924	58.26610	-625.81512	819.81488	59.04952	-631.09552	-657.95587	-26.58848	506.48053	783.53851	-29.18780	514.90466	36.44370	1376.68970	-852.33679	
1882	18.810	-750.23804	58.94654	-625.31354	819.80023	59.86766	-630.78601	-658.10931	-27.31383	506.66013	783.61255	-29.89769	515.34424	36.60752	1377.98755	-850.27069	
1883	18.820	-750.29694	59.63787	-624.84473	819.81329	60.90388	-630.37506	-658.11023	-27.97800	506.66364	783.80786	-30.83521	514.92310	36.86978	1379.36499	-848.12506	
1884	18.830	-750.16357	60.85617	-624.63824	819.74878	61.71154	-630.15436	-658.48267	-28.20353	506.56940	783.61719	-31.62348	514.96844	36.32603	1380.36572	-846.15161	
1885	18.840	-750.25983	61.97292	-624.44611	819.88635	62.74987	-629.78363	-658.13684	-29.15083	506.95462	783.63245	-32.30436	515.18048	36.54288	1381.57397	-843.90845	
1886	18.850	-750.27527	62.71491	-624.04852	819.72559	63.42941	-629.57782	-658.15814	-29.90213	507.21939	783.70245	-32.88649	515.42419	36.46588	1383.15308	-841.55432	
1887	18.860	-750.47559	63.50684	-623.83887	819.40332	64.22586	-629.29761	-658.33380	-30.29260	507.24545	782.86389	-32.72697	520.60187	36.33118	1383.85876	-839.26794	
1888	18.870	-750.78076	64.31485	-623.55865	819.34882	65.27952	-628.83630	-658.65710	-31.03504	507.42447	782.80750	-32.90648	521.20087	36.22268	1384.92798	-836.98285	
1889	18.880	-750.98126	65.38645	-623.42731	819.00848	66.18594	-628.60028	-658.73151	-31.33593	507.53046	783.29370	-33.91562	516.85956	35.71980	1385.85266	-834.77979	
1890	18.890	-751.36731	66.03690	-623.27942	818.58228	66.73590	-628.45752	-659.35229	-32.06544	507.70706	783.48169	-34.06534	519.53528	34.95275	1386.96191	-832.96521	
1891	18.900	-751.66602	66.52287	-623.06415	818.16919	67.08109	-628.33594	-659.70898	-32.62109	508.00430	783.11182	-34.18521	519.36267	34.62350	1387.79041	-831.11945	
1892	18.910	-752.21326	66.90444	-622.71375	817.87390	67.62244	-628.16223	-660.07385	-32.92526	508.16956	781.23914	-33.60484	520.84259	34.64375	1388.35498	-829.60156	
1893	18.920	-752.58551	67.43581	-622.26831	817.68616	68.31059	-627.82245	-660.43042	-33.25124	508.30499	780.22180	-34.58250	520.11908	34.41808	1389.13611	-828.96466	
1894	18.930	-752.80347	68.03876	-621.85333	817.33618	68.92219	-627.59607	-660.85223	-33.88039	508.39700	780.22833	-36.52954	517.62518	34.03922	1389.99719	-828.31213	
1895	18.940	-753.07025	68.39209	-621.71552	816.98193	69.26545	-627.43341	-661.12921	-34.29021	508.41443	780.58734	-37.83978	515.94427	33.68225	1390.92273	-827.80615	
1896	18.950	-753.31927	69.07396	-621.80127	816.47253	69.93748	-627.34949	-661.29419	-34.68037	508.35660	780.73657	-37.66293	516.58484	32.76680	1391.81384	-826.94763	
1897	18.960	-753.75525	69.90468	-621.69580	815.96014	70.43559	-627.05865	-661.81201	-35.21239	508.52466	780.44708	-37.64180	517.41351	32.91661	1392.33765	-826.02307	
1898	18.970	-754.42493	70.51966	-621.48914	815.43823	70.85061	-626.89124	-662.28247	-35.57959	508.70157	779.52216	-37.94742	517.90033	32.38165	1393.11084	-824.49182	
1899	18.980	-755.10541	70.93266	-621.33368	815.03381	71.11198	-626.73303	-662.85303	-35.75477	508.77029	778.83368	-38.08933	518.25397	31.88408	1393.38147	-823.09875	
1900	18.990	-755.54767	71.25280	-621.31049	814.45734	71.51981	-626.68158	-663.44171	-35.92175	508.81317	778.67542	-38.38470	518.31232	31.17750	1393.70288	-821.18256	
1901	19.000	-755.99670	71.24077	-621.28052	814.03168	71.81096	-626.52954	-663.95197	-36.17500	508.84268	778.53906	-38.49887	518.29419	30.63083	1393.91968	-819.55524	
1902	19.010	-756.42865	71.39529	-621.10028	813.62646	71.99062	-626.37555	-664.16852	-36.38745	508.96741	778.06671	-38.41801	518.65155	30.20289	1394.32642	-818.43665	
1903	19.020	-756.86292	71.67228	-621.01794	812.98645	72.15935	-626.29974	-664.64502	-36.83499	508.94000	777.15564	-38.89267	518.41003	29.72921	1394.49365	-817.29169	
1904	19.030	-757.39465	71.96569	-620.84308	812.51331	72.50856	-626.25592	-665.50360	-36.61263	508.92102	776.09045	-38.86007	518.48938	29.01676	1394.84680	-817.20258	
1905	19.040	-758.22339	72.07319	-620.71130	812.07092	72.75028	-626.19287	-665.87695	-36.79072	508.97827	775.84619	-39.26497	518.27924	28.60790	1395.03113	-817.55670	
1906	19.050	-758.71912	72.14811	-620.89032	811.44495	72.84303	-626.09576	-666.72064	-36.74439	509.00580	775.65845	-39.62095	518.22382	27.83912	1395.44275	-818.47418	
1907	19.060	-759.51215	72.28479	-620.95953	810.65045	72.93218	-626.08276	-667.26440	-36.88572	509.02820	774.75293	-39.50893	518.46124	27.49907	1395.82397	-819.65173	
1908	19.070	-760.00635	72.35803	-620.65228	810.04260	73.08481	-626.04572	-667.72766	-36.95560	509.19421	774.14264	-39.60743	518.59717	27.30735	1396.00684	-820.28571	
1909	19.080	-760.55957	72.48215	-620.47437	809.45264	73.24515	-625.98022	-668.56482	-37.15008	509.21179	773.03455	-39.80801	519.12775	26.83287	1396.06384	-820.24219	
1910	19.090	-761.41504	72.62544	-620.19977	808.96277	73.30471	-626.02551	-669.20471	-37.26975	509.18100	772.85040	-40.18706	518.86542	25.94974	1396.20667	-820.02386	
1911	19.100	-762.04907	72.70807	-620.42194	807.97363	73.10287	-626.02216	-669.79944	-37.08376	509.13831	772.00732	-40.08052	518.43604	24.75202	1396.29346	-819.56445	
1912	19.110	-762.79755	72.66676	-620.71777	807.24268	73.02243	-626.03894	-670.62537	-36.88569	509.08124	771.22943	-39.83366	518.36737	24.26475	1396.03577	-819.21307	
1913	19.120	-763.46448	72.33538	-620.83423	806.36731	72.79451	-626.18378	-671.55786	-36.71506	509.05533	770.74854	-39.98300	518.13068	23.50758	1395.70667	-817.88605	
1914	19.130	-764.04468	72.13594	-620.70221	805.98749	72.69453	-626.18475	-672.09888	-36.60995	509.16156	769.86676	-39.86306	518.62982	22.94161	1395.14514	-816.98749	
1915	19.140	-764.89758	72.09176	-620.63947	805.29700	72.65815	-626.15045	-672.73767	-36.58388	509.16013	768.58008	-39.31955	518.54340	21.82965	1394.91626	-816.56604	
1916	19.150	-765.63000	71.85176	-620.89838	804.44293	72.50969	-626.19745	-673.62323	-36.65369	509.04672	768.50287	-39.32217	518.31610	20.95571	1394.70361	-816.83344	
1917	19.160	-766.56006	71.67924	-621.04767	803.38007	72.13080	-626.31427	-674.30817	-36.30547	508.83008	767.81799	-39.06273	518.26062	20.22964	1394.38550	-817.76532	
1918	19.170	-767.27692	71.57019	-621.15137	802.84290	71.93838	-626.56305	-675.02222	-36.13314	508.81992	766.71680	-38.72335	518.12921	19.51641	1394.26416	-819.36438	
1919	19.180	-767.89471	71.34873	-621.11584	802.14691	71.60329	-626.49835	-675.95642	-36.12320	508.80374	766.09717	-38.37239	518.47357	18.74127	1393.95422	-820.91046	
1920	19.190	-768.90826	71.11234	-621.20703	801.38275	71.33591	-626.39215	-676.68225	-36.02031	509.00644	765.59741	-38.23616	518.34393	18.12351	1393.58472	-822.58026	
1921	19.200	-769.82776	70.62670	-621.23816	800.33057	70.87032	-626.60938	-677.22797	-35.97768	508.92255	764.50836	-37.86683	518.22729	17.35416	1393.06128	-824.51440	
1922	19.210	-770.61572	70.40529	-621.56940	799.46399	70.49140	-626.93048	-678.45911	-35.13545	508.51993	763.92834	-37.46944	518.28619	16.47869	1392.75574	-825.75909	
1923	19.220	-771.22809	69.61562	-621.55884	798.78223	70.26627	-627.01251	-679.64166	-34.40841	508.27847	763.23639	-37.11041	518.23969	15.64843	1392.13574	-826.27209	
1924	19.230	-772.26660	69.15125	-621.54163	797.71216	69.76341	-627.07013	-680.79718	-33.77608	508.60501	761.54297	-36.49239	518.64630	14.42141	1391.28601	-827.17316	
1925	19.240	-773.23102	68.65691	-621.76447	796.71222	69.18385	-627.26935	-681.37744	-33.67063	508.30377	761.00262	-36.44173	517.75916	13.62112	1390.53308	-827.60516	
1926	19.250	-774.26202	68.06267	-622.26483	796.03033	68.76937	-627.39587	-682.46869	-33.22037	508.44022	760.15265	-35.85379	517.64923	12.93204	1389.58130	-827.88446	
1927	19.260	-775.04132	67.32069	-622.44171	795.06531	67.89302	-627.54871	-683.27319	-32.74833	508.19336	759.15735	-35.55436	517.46027	11.61791	1389.01196	-828.81909	
1928	19.270	-775.83185	66.67339	-622.50067	793.91718	67.13496	-628.02466	-684.03162	-32.41952	508.08136	758.05542	-34.89271	517.45099	10.53594	1387.96997	-829.67133	
1929	19.280	-777.11047	66.05354	-622.78156	793.21973	66.76730	-628.07666	-685.05383	-32.07265	507.94800	757.00757	-34.70877	517.34583	9.68511	1387.25037	-831.20569	
1930	19.290	-778.20764	65.47459	-622.81812	792.01398	66.11603	-628.36298	-685.74738	-31.76567	507.94940	756.12354	-34.16066	517.17542	9.01291	1386.18445	-833.52277	
1931	19.300	-778.81885	64.79041	-623.28619	791.03070	65.49099	-628.56799	-686.60651	-31.09810	507.66943	755.52954	-33.45562	517.06824	8.30174	1385.53723	-835.79309	
1932	19.310	-779.68500	63.94006	-623.14362	790.11072	64.86316	-628.78894	-687.70923	-30.81178	507.57892	754.40149	-33.13060	516.88562	6.95556	1384.60083	-838.49988	
1933	19.320	-780.99817	63.40596	-623.61346	789.09894	63.89929	-629.04065	-688.34515	-30.63025	507.71783	753.20905	-32.57946	516.80469	5.93976	1383.87903	-840.90570	
1934	19.330	-782.18939	62.64909	-623.91528	788.06317	63.32283	-629.18390	-689.87781	-29.39453	507.52438	752.02734	-32.02004	516.70349	4.91738	1382.90173	-842.96881	
1935	19.340	-782.81451	61.98820	-624.23474	786.82294	62.40944	-629.56512	-691.06268	-28.92895	507.31677	751.10248	-31.71552	516.38672	4.00075	1381.65186	-844.78577	
1936	19.350	-783.73450	60.84067	-624.15479	786.14764	61.80657	-629.64594	-692.00751	-28.34526	507.08923	750.30225	-30.95023	516.24548	2.70936	1380.55835	-846.28992	
1937	19.360	-785.03088	60.09579	-624.39648	785.09296	60.83112	-630.03766	-692.69781	-27.95515	507.21490	749.21033	-30.09795	516.17194	2.04081	1379.34534	-847.38586	
1938	19.370	-786.11975	59.39785	-625.08594	784.09583	60.07391	-630.09363	-693.87341	-27.28923	506.77838	747.99683	-29.53188	516.10950	0.60958	1378.14392	-848.69574	
1939	19.380	-787.07098	58.24547	-625.14362	782.92285	58.84753	-630.51135	-694.86554	-26.62593	506.59613	747.12640	-29.01447	515.92590	-0.31012	1376.92822	-850.45392	
1940	19.390	-787.88843	57.21648	-625.45825	782.01001	58.03905	-630.83923	-695.98260	-26.05046	506.49817	746.01288	-28.26036	515.69183	-1.60776	1375.39966	-852.03735	
1941	19.400	-789.31866	56.19911	-625.76428	780.80035	56.98546	-631.24646	-697.12738	-25.43202	506.29596	744.94623	-27.50863	515.52966	-2.76777	1374.40735	-854.26099	
1942	19.410	-790.49335	55.33391	-626.05939	779.84119	56.15999	-631.36383	-698.25568	-24.52856	506.00827	743.31830	-26.75501	515.39520	-3.69795	1373.12756	-856.81403	
1943	19.420	-791.34454	54.37659	-626.23260	778.48920	55.06940	-631.76447	-699.97815	-22.74659	505.99170	742.92133	-26.04800	515.02399	-4.89423	1371.69958	-859.83044	
1944	19.430	-792.42291	53.28146	-626.66571	777.48682	54.12817	-632.02966	-701.19385	-22.23221	505.83603	741.51105	-25.46813	514.83173	-5.64670	1370.25342	-862.77722	
1945	19.440	-793.75641	52.02853	-627.04364	776.32581	52.85378	-632.54230	-701.79279	-22.07480	505.40750	740.43188	-24.64610	514.57947	-7.14126	1368.87988	-865.68134	
1946	19.450	-794.70868	51.24949	-627.26001	775.20087	51.81184	-632.81525	-702.74200	-21.37590	505.25381	739.27747	-23.84270	514.41644	-7.78286	1367.36755	-868.62231	
1947	19.460	-795.70990	50.04448	-627.53876	774.41473	50.66314	-632.88159	-703.89471	-20.59193	505.04501	737.75397	-22.99188	514.19843	-9.02694	1365.92810	-871.19836	
